<svg width="161" height="64" viewBox="0 0 161 64" fill="none" xmlns="http://www.w3.org/2000/svg">
<path d="M158.076 39.0765C157.791 42.2129 155.473 45.1073 151.307 47.6328C147.152 50.1519 141.249 52.245 134.002 53.8034C119.515 56.9188 99.7747 57.8732 78.2226 55.9131C56.6705 53.953 37.4266 49.4531 23.7391 43.7753C16.8925 40.9351 11.4635 37.8113 7.83096 34.584C4.18926 31.3485 2.43175 28.0834 2.717 24.947C3.00225 21.8106 5.31995 18.9162 9.48559 16.3907C13.6407 13.8716 19.5443 11.7785 26.7909 10.2201C41.2781 7.10463 61.0181 6.15027 82.5702 8.11038C104.122 10.0705 123.366 14.5703 137.054 20.2482C143.9 23.0884 149.329 26.2121 152.962 29.4395C156.604 32.675 158.361 35.9401 158.076 39.0765Z" stroke="#C3E3F8" stroke-opacity="0.8"/>
<path d="M157.495 24.5267C157.795 27.6769 156.069 30.9604 152.476 34.2183C148.892 37.4687 143.526 40.6213 136.752 43.4939C123.21 49.2368 104.151 53.816 82.7887 55.8541C61.4263 57.8922 41.8452 56.9995 27.4617 53.9209C20.2669 52.3809 14.4014 50.3 10.2673 47.7859C6.12358 45.266 3.807 42.3684 3.50645 39.2181C3.20589 36.0679 4.93276 32.7845 8.52522 29.5265C12.1093 26.2761 17.4756 23.1236 24.2494 20.2509C37.7913 14.508 56.8503 9.9288 78.2127 7.8907C99.575 5.8526 119.156 6.74532 133.54 9.82397C140.734 11.3639 146.6 13.4449 150.734 15.9589C154.878 18.4788 157.194 21.3764 157.495 24.5267Z" stroke="#C3E3F8"/>
</svg>
