<svg xmlns="http://www.w3.org/2000/svg" width="45" height="45" viewBox="0 0 45 45" fill="none">
  <g clip-path="url(#clip0_1_451)">
    <path d="M34.7418 15.9409L25.196 18.0284L29.8634 1.68394C30.2689 0.263404 28.3695 -0.646621 27.5178 0.56326L8.89889 27.016C8.19882 28.0106 9.11139 29.3455 10.292 29.0547L18.7976 26.9609L14.1455 43.3209C13.7447 44.7306 15.6108 45.629 16.4724 44.4666L36.0825 18.0139C36.8061 17.0375 35.9288 15.6815 34.7418 15.9409ZM18.6578 37.0913L21.9542 25.4988C22.2299 24.5295 21.3555 23.6159 20.3712 23.8582L13.0825 25.6525L25.1885 8.45311L22.0552 19.4254C21.7825 20.3804 22.6283 21.289 23.6044 21.0752L31.871 19.2674L18.6578 37.0913Z" fill="white"/>
    <path d="M33.8907 37.0904L30.727 37.0377L32.4074 33.733C32.7374 33.084 32.4788 32.2904 31.8298 31.9605C31.1807 31.6304 30.3872 31.8891 30.0572 32.5381L27.4207 37.7232C26.8844 38.7747 27.5863 39.4639 28.5972 39.6391L31.7534 39.6918L30.0533 43.092C29.7277 43.7432 29.9916 44.535 30.6428 44.8607C31.2953 45.1869 32.0864 44.921 32.4114 44.2712L35.0479 38.9982C35.4809 38.1318 34.8543 37.1047 33.8907 37.0904Z" fill="white"/>
    <path d="M13.3664 0.142838C12.7152 -0.18268 11.9234 0.081232 11.5978 0.732355L8.9613 6.00532C8.53252 6.86297 9.14401 7.91308 10.1481 7.91308H13.2804L11.5978 11.2783C11.2722 11.9295 11.5362 12.7212 12.1873 13.0469C12.8397 13.3731 13.6309 13.1073 13.9559 12.4574L16.5924 7.18444C17.031 6.30711 16.3859 5.27668 15.4133 5.27668H12.2733L13.9559 1.91148C14.2815 1.26027 14.0175 0.468443 13.3664 0.142838Z" fill="white"/>
  </g>
  <defs>
    <clipPath id="clip0_1_451">
      <rect width="45" height="45" fill="white"/>
    </clipPath>
  </defs>
</svg>